<svg width="136" height="136" viewBox="0 0 136 136" fill="none" xmlns="http://www.w3.org/2000/svg">
<path d="M68 136C105.555 136 136 105.555 136 68C136 30.4446 105.555 0 68 0C30.4446 0 0 30.4446 0 68C0 105.555 30.4446 136 68 136Z" fill="#171717"/>
<path d="M104.329 40.2454L90.4068 34.4453C88.8796 33.8092 87.128 33.8093 85.601 34.4454L78.9166 37.2296C78.3191 37.4787 78.0365 38.1646 78.2854 38.7621C78.5343 39.3596 79.2202 39.6424 79.8179 39.3934L86.5022 36.609C87.4561 36.2115 88.551 36.2113 89.5057 36.6088L103.427 42.4087C104.781 42.9735 105.656 44.2437 105.656 45.6442V95.7614C105.656 97.7103 103.982 99.2957 101.925 99.2957H100.025C99.3777 99.2957 98.8532 99.8203 98.8532 100.468C98.8532 101.115 99.3777 101.639 100.025 101.639H101.925C105.275 101.639 108 99.0026 108 95.7614V45.6442C108 43.2948 106.559 41.1757 104.329 40.2454Z" fill="#FDFDFD"/>
<path d="M94.9172 99.2959H75.2266C76.0373 98.3743 76.4813 97.2051 76.4813 95.9678C76.4813 94.7329 76.0342 93.6012 75.2945 92.7237C75.7609 92.4857 76.1928 92.1743 76.5741 91.7932C77.5259 90.8412 78.05 89.5754 78.05 88.2287C78.05 86.945 77.5669 85.7725 76.7739 84.8815C77.1666 84.6592 77.5322 84.3836 77.8597 84.0557C78.8116 83.104 79.3358 81.8382 79.3358 80.4912C79.3358 79.2112 78.8556 78.0417 78.0672 77.1515C78.4664 76.9275 78.8383 76.6484 79.1717 76.3157C80.123 75.3623 80.6467 74.0968 80.6467 72.752C80.6467 69.9717 78.3855 67.7098 75.6059 67.7098H70.3512V45.6442C70.3512 44.2435 71.2264 42.9734 72.5798 42.4089L74.7113 41.5214C75.3088 41.2726 75.5914 40.5867 75.3427 39.989C75.0938 39.3915 74.4078 39.1084 73.8103 39.3576L71.6781 40.2454C69.4483 41.1756 68.0075 43.2948 68.0075 45.6442V67.71H63.1111C64.7416 62.5575 64.6028 57.1801 62.7 50.939C62.4109 49.9939 61.8359 49.1843 61.0367 48.5979C60.2422 48.0151 59.3006 47.7068 58.3136 47.7068C57.042 47.7068 55.8597 48.2146 54.9841 49.1367C54.1089 50.0585 53.6633 51.2654 53.7292 52.5348C54.0956 59.5812 50.8453 62.0065 46.3467 65.3636C44.8656 66.4687 43.2469 67.6775 41.6559 69.1598V67.6239C41.6559 66.9765 41.1314 66.452 40.4841 66.452H29.1719C28.5245 66.452 28 66.9765 28 67.6239V100.86C28 101.507 28.5245 102.032 29.1719 102.032H40.4844C41.1317 102.032 41.6562 101.507 41.6562 100.86V97.9117C43.882 98.1234 45.5077 98.567 47.087 99.7775C48.1239 100.572 49.402 101.01 50.6859 101.01H71.3533C72.1977 101.421 73.1337 101.639 74.0827 101.639H94.917C95.5644 101.639 96.0889 101.115 96.0889 100.468C96.0889 99.8203 95.5644 99.2959 94.9172 99.2959ZM48.5128 97.9171C46.3031 96.2239 43.9416 95.7534 41.6562 95.5561V81.8725C41.6562 81.2251 41.1317 80.7006 40.4844 80.7006C39.837 80.7006 39.3125 81.2251 39.3125 81.8725V99.6881H30.3438V68.7959H39.3125V76.7664C39.3125 77.4137 39.837 77.9382 40.4844 77.9382C41.1317 77.9382 41.6562 77.4137 41.6562 76.7664V72.489C43.6166 70.3257 45.7156 68.7593 47.7487 67.2421C52.2502 63.8832 56.5017 60.7104 56.0703 52.4132C56.038 51.7921 56.2559 51.2017 56.6844 50.7506C57.1128 50.2992 57.6916 50.0507 58.3141 50.0507C58.7989 50.0507 59.2609 50.2018 59.6505 50.4878C60.0394 50.7731 60.3189 51.1662 60.4589 51.6239C62.3969 57.9809 62.3666 63.3293 60.3634 68.4557C60.2225 68.8164 60.2689 69.2232 60.4872 69.5431C60.7055 69.8629 61.0677 70.0542 61.4548 70.0542H75.6062C77.0934 70.0542 78.3033 71.2646 78.3033 72.7526C78.3033 73.4721 78.0225 74.1498 77.5145 74.659C77.0036 75.1687 76.3261 75.4495 75.6062 75.4495H70.7922C70.1448 75.4495 69.6203 75.974 69.6203 76.6214C69.6203 77.2687 70.1448 77.7932 70.7922 77.7932H74.2953C75.7823 77.7932 76.9922 79.0037 76.9922 80.4918C76.9922 81.2126 76.7119 81.89 76.2025 82.3992C75.6934 82.9084 75.0161 83.1887 74.2953 83.1887H70.7922C70.1448 83.1887 69.6203 83.7132 69.6203 84.3606C69.6203 85.0079 70.1448 85.5325 70.7922 85.5325H73.0092C74.4964 85.5325 75.7063 86.7423 75.7063 88.2293C75.7063 88.95 75.4258 89.6275 74.9167 90.1367C74.4064 90.647 73.7289 90.9278 73.0092 90.9278H71.4405H69.5061C68.8587 90.9278 68.3342 91.4523 68.3342 92.0997C68.3342 92.747 68.8587 93.2715 69.5061 93.2715H71.4405C72.9277 93.2715 74.1375 94.4814 74.1375 95.9684C74.1375 96.689 73.8567 97.3672 73.3489 97.8762C72.873 98.3511 72.1211 98.654 71.5584 98.664C71.5195 98.6646 50.6859 98.6668 50.6859 98.6668C49.9147 98.6661 49.1428 98.4001 48.5128 97.9171Z" fill="#FDFDFD"/>
<path d="M92.2331 46.1647C92.2331 43.7022 90.2297 41.6987 87.7672 41.6987C85.3047 41.6987 83.3013 43.7022 83.3013 46.1647C83.3013 48.6272 85.3047 50.6306 87.7672 50.6306C90.2297 50.6306 92.2331 48.6272 92.2331 46.1647ZM85.645 46.1647C85.645 44.9945 86.5971 44.0425 87.7672 44.0425C88.9374 44.0425 89.8894 44.9945 89.8894 46.1647C89.8894 47.3348 88.9374 48.2869 87.7672 48.2869C86.5971 48.2869 85.645 47.335 85.645 46.1647Z" fill="#FDFDFD"/>
<path d="M93.8455 69H86.7724C86.2516 69 85.8293 69.4283 85.8293 69.9565V77.6087H83.9431C83.4223 77.6087 83 78.037 83 78.5652C83 79.0934 83.4223 79.5217 83.9431 79.5217H85.8293V83.3478H83.9431C83.4223 83.3478 83 83.7762 83 84.3043C83 84.8325 83.4223 85.2609 83.9431 85.2609H85.8293V90.0435C85.8293 90.5717 86.2516 91 86.7724 91C87.2931 91 87.7155 90.5717 87.7155 90.0435V85.2609H95.2602C95.7809 85.2609 96.2033 84.8325 96.2033 84.3043C96.2033 83.7762 95.7809 83.3478 95.2602 83.3478H87.7155V79.5217H93.8455C97.2295 79.5217 99 76.8741 99 74.2588C99 71.6455 97.2295 69 93.8455 69ZM93.8455 77.6087H87.7155V70.913H93.8455C94.8686 70.913 95.7163 71.2659 96.2973 71.9337C96.8162 72.5301 97.1138 73.3776 97.1138 74.2588C97.1138 75.9262 96.1032 77.6087 93.8455 77.6087Z" fill="#FDFDFD"/>
</svg>
