<svg width="136" height="136" viewBox="0 0 136 136" fill="none" xmlns="http://www.w3.org/2000/svg">
<path d="M68 136C105.555 136 136 105.555 136 68C136 30.4446 105.555 0 68 0C30.4446 0 0 30.4446 0 68C0 105.555 30.4446 136 68 136Z" fill="#171717"/>
<path d="M104.591 67.7141L104.532 67.7162C102.718 67.7845 101.151 69.0595 100.723 70.817L99.4679 75.9725C98.2754 80.8686 94.9951 84.9461 90.4681 87.1592C89.9365 87.4189 89.3367 87.362 88.8635 87.0064C88.3904 86.6509 88.1688 86.0906 88.2706 85.5076L89.2617 79.8311C89.5603 78.1206 88.4604 76.5134 86.7578 76.1722C85.4654 75.9136 84.1714 76.4633 83.4607 77.5734L77.046 87.5936C76.1276 86.9316 74.8364 87.0109 74.0104 87.8366L69.3575 92.4895C68.8998 92.9473 68.8998 93.6891 69.3575 94.1468L82.8678 107.657C83.0967 107.886 83.3967 108 83.6965 108C83.9964 108 84.2964 107.886 84.5253 107.657L89.1782 103.004C90.0484 102.134 90.0909 100.746 89.3082 99.8229C90.8007 98.9927 92.2576 98.0415 93.6398 96.9928C94.1554 96.6017 94.2562 95.8666 93.8649 95.3509C93.4742 94.8355 92.739 94.7345 92.2231 95.1258C89.8468 96.9284 87.8553 97.9381 87.5931 98.0939L78.7612 89.262L85.4346 78.8373C85.6206 78.5469 85.9592 78.4038 86.2973 78.4704C86.7431 78.5597 87.0309 78.9805 86.9526 79.4281L85.9615 85.1047C85.709 86.5513 86.2815 87.998 87.4554 88.88C88.6295 89.7622 90.1781 89.9097 91.4973 89.2648C96.6518 86.7448 100.387 82.1022 101.745 76.5272L103 71.3716C103.404 69.7116 105.792 69.6345 105.651 71.0892C104.88 79.0409 101.326 86.5222 95.6448 92.1548C95.1852 92.6105 95.182 93.3524 95.6376 93.8119C96.0932 94.2715 96.8349 94.2751 97.2948 93.8192C103.364 87.8022 107.16 79.8103 107.984 71.3153C108.175 69.3476 106.593 67.6431 104.591 67.7141ZM83.6965 105.171L71.8443 93.3191L75.6782 89.4938L87.5207 101.347L83.6965 105.171Z" fill="#FDFDFD"/>
<path d="M52.7814 47.7655L54.3395 48.6289C54.3525 48.6363 54.3633 48.6467 54.3708 48.6597L56.8086 52.8819C56.8161 52.8947 56.8198 52.9094 56.8195 52.9242L56.7884 54.7056C56.7731 55.5866 57.2375 56.4075 58.0006 56.8481L61.5317 58.8866C61.9069 59.1034 62.3258 59.2116 62.7444 59.2116C63.177 59.2116 63.6094 59.0961 63.9931 58.8653L65.5209 57.9474C65.5333 57.94 65.5476 57.9361 65.5625 57.9361H70.4381C70.453 57.9361 70.4675 57.94 70.4801 57.9477L72.0075 58.8655C72.763 59.3192 73.7062 59.3275 74.4687 58.8867L77.9998 56.8481C78.7629 56.4077 79.2272 55.5867 79.212 54.7056L79.1811 52.9242C79.1808 52.9094 79.1845 52.8949 79.1918 52.882L81.63 48.6595C81.6373 48.6467 81.6481 48.6363 81.6606 48.6292L83.219 47.7655C83.9897 47.3384 84.4684 46.5256 84.4684 45.6445V41.5672C84.4684 40.6863 83.9898 39.8736 83.219 39.4463L81.6611 38.5828C81.6481 38.5755 81.6373 38.565 81.6297 38.5519L81.4889 38.308C81.1653 37.7477 80.4483 37.5556 79.8881 37.8794C79.3276 38.203 79.1358 38.9197 79.4595 39.4802L79.6 39.7238C79.8198 40.1047 80.1393 40.4188 80.5245 40.6324L82.0826 41.4959C82.1086 41.5105 82.1248 41.5377 82.1248 41.5672V45.6445C82.1248 45.6741 82.1087 45.7013 82.0829 45.7156L80.524 46.5797C80.1393 46.793 79.8198 47.1072 79.6001 47.4878L77.162 51.7103C76.9422 52.0914 76.83 52.5253 76.8376 52.965L76.8686 54.7464C76.8692 54.7759 76.8536 54.8034 76.8279 54.8183L73.2967 56.857C73.2712 56.8716 73.2394 56.8713 73.2145 56.8563L71.6873 55.9386C71.3101 55.712 70.8783 55.5922 70.4383 55.5922H65.5626C65.1223 55.5922 64.6903 55.712 64.3137 55.9386L62.7862 56.8563C62.7611 56.8714 62.7295 56.8717 62.7041 56.8569L59.173 54.8184C59.1473 54.8034 59.1316 54.7761 59.1322 54.7464L59.1633 52.965C59.1709 52.5253 59.0587 52.0914 58.8387 51.7102L56.4009 47.488C56.1811 47.107 55.8616 46.793 55.4764 46.5794L53.918 45.7156C53.8922 45.7014 53.8761 45.6741 53.8761 45.6445V41.5672C53.8761 41.5377 53.8923 41.5103 53.9178 41.4961L55.4769 40.632C55.8616 40.4188 56.1811 40.1045 56.4008 39.7239L58.8389 35.5014C59.0587 35.1203 59.1709 34.6864 59.1633 34.2467L59.1322 32.4653C59.1316 32.4359 59.1472 32.4084 59.1728 32.3936L62.7042 30.3547C62.7298 30.34 62.7611 30.3403 62.7864 30.3556L64.3139 31.2734C64.6909 31.4999 65.1228 31.6197 65.5626 31.6197H70.4383C70.8778 31.6197 71.3095 31.5 71.6872 31.2733L73.2145 30.3556C73.2398 30.3403 73.2712 30.34 73.2969 30.3549L76.8283 32.3938C76.8536 32.4084 76.8692 32.4359 76.8686 32.4653L76.8376 34.2469C76.8312 34.6153 76.9133 34.9899 77.075 35.3297C77.3531 35.9141 78.0525 36.1627 78.6365 35.8849C79.2211 35.6069 79.4695 34.9077 79.1917 34.3233C79.1837 34.3067 79.1811 34.2936 79.1812 34.2877L79.2122 32.5063C79.2275 31.625 78.7629 30.8041 78 30.3639L74.4687 28.325C73.7058 27.8842 72.7623 27.8922 72.0072 28.3464L70.4805 29.2638C70.4675 29.2716 70.4528 29.2756 70.4381 29.2756H65.5625C65.5476 29.2756 65.5331 29.2716 65.5205 29.2641L63.9934 28.3466C63.2386 27.8927 62.295 27.8841 61.5319 28.3249L58.0008 30.3634C57.2377 30.8039 56.7733 31.6249 56.7884 32.5059L56.8195 34.2874C56.8198 34.3022 56.8161 34.3167 56.8088 34.3295L54.3706 38.552C54.3633 38.5649 54.3525 38.5753 54.34 38.5824L52.7809 39.4463C52.0106 39.8736 51.5322 40.6864 51.5322 41.567V45.6444C51.5322 46.5256 52.0108 47.3383 52.7814 47.7655Z" fill="#FDFDFD"/>
<path d="M68 36.519C64.0922 36.519 60.9129 39.6984 60.9129 43.6062C60.9129 47.514 64.0923 50.6933 68 50.6933C71.9079 50.6933 75.0872 47.5139 75.0872 43.6062C75.0873 39.6983 71.9079 36.519 68 36.519ZM68 48.3497C65.3845 48.3497 63.2567 46.2219 63.2567 43.6064C63.2567 40.9909 65.3845 38.8628 68 38.8628C70.6154 38.8628 72.7434 40.9908 72.7434 43.6062C72.7434 46.2217 70.6154 48.3497 68 48.3497Z" fill="#FDFDFD"/>
<path d="M89.32 66.6171C92.2277 66.6171 94.5933 64.2515 94.5933 61.3438C94.5933 58.4362 92.2277 56.0706 89.32 56.0706C86.4124 56.0706 84.0466 58.4362 84.0466 61.3438C84.0466 64.2515 86.4124 66.6171 89.32 66.6171ZM89.32 58.4143C90.9353 58.4143 92.2495 59.7285 92.2495 61.3438C92.2495 62.9592 90.9353 64.2734 89.32 64.2734C87.7045 64.2734 86.3903 62.9592 86.3903 61.3438C86.3903 59.7285 87.7047 58.4143 89.32 58.4143Z" fill="#FDFDFD"/>
<path d="M81.187 53.6543L81.2072 54.8053L79.6008 57.5877L78.5944 58.1457C77.9456 58.5049 77.5427 59.1889 77.5427 59.9306V62.7577C77.5427 63.4991 77.9455 64.1831 78.5941 64.5427L79.6008 65.1008L81.2072 67.883L81.187 69.0342C81.1742 69.7755 81.565 70.4664 82.207 70.8372L84.6555 72.2506C84.9713 72.433 85.3234 72.5239 85.6758 72.5239C86.0399 72.5239 86.4038 72.4267 86.7269 72.2327L87.7136 71.6397H90.9264L91.9131 72.2327C92.5486 72.6144 93.3422 72.6214 93.9847 72.2506L96.4328 70.8372C97.075 70.4666 97.4658 69.7758 97.453 69.0342L97.4328 67.883L99.0392 65.1008L100.046 64.5425C100.695 64.1828 101.098 63.4989 101.098 62.7577V59.9306C101.098 59.1891 100.695 58.5052 100.046 58.1458L99.0392 57.5875L97.4328 54.8053L97.453 53.6543C97.4658 52.9127 97.075 52.2219 96.433 51.8513L93.9845 50.4377C93.3428 50.0669 92.5489 50.0743 91.9131 50.4558L90.9264 51.0488H87.7136L86.7269 50.4558C86.0914 50.0741 85.2977 50.0671 84.6553 50.4377L82.2069 51.8514C81.565 52.2221 81.1742 52.913 81.187 53.6543ZM83.5334 53.7918L85.6725 52.5568L86.5788 53.1013C86.8961 53.2919 87.2594 53.3925 87.6297 53.3925H91.0103C91.3805 53.3925 91.7438 53.2918 92.0614 53.1011L92.9675 52.5568L95.1066 53.7918L95.0881 54.8486C95.0817 55.2193 95.1763 55.5847 95.3613 55.9046L97.0513 58.8316C97.2363 59.1525 97.5053 59.4171 97.8292 59.5966L98.7538 60.1091V62.5792L97.8289 63.0917C97.505 63.2714 97.236 63.5361 97.0514 63.8561L95.3613 66.7835C95.176 67.1042 95.0816 67.4694 95.088 67.8399L95.1064 68.8967L92.9674 70.1316L92.0611 69.5872C91.7438 69.3966 91.3805 69.2959 91.0102 69.2959H87.6297C87.2595 69.2959 86.8963 69.3967 86.5785 69.5874L85.6725 70.1316L83.5334 68.8967L83.5519 67.8399C83.5583 67.4694 83.4639 67.1042 83.2788 66.7838L81.5888 63.8567C81.4038 63.5358 81.1347 63.2713 80.8106 63.0917L79.8863 62.5794V60.1092L80.8097 59.5974C81.1341 59.418 81.4036 59.1532 81.5884 58.8324L83.2783 55.9055C83.4638 55.5849 83.5583 55.2194 83.5519 54.8488L83.5334 53.7918Z" fill="#FDFDFD"/>
<path d="M46.6801 66.6171C49.5878 66.6171 51.9534 64.2515 51.9534 61.3438C51.9534 58.4362 49.5878 56.0706 46.6801 56.0706C43.7725 56.0706 41.4068 58.4362 41.4068 61.3438C41.4068 64.2515 43.7725 66.6171 46.6801 66.6171ZM46.6801 58.4143C48.2954 58.4143 49.6096 59.7285 49.6096 61.3438C49.6096 62.9592 48.2954 64.2734 46.6801 64.2734C45.0648 64.2734 43.7506 62.9592 43.7506 61.3438C43.7506 59.7285 45.0648 58.4143 46.6801 58.4143Z" fill="#FDFDFD"/>
<path d="M35.9539 64.5421L36.9609 65.1002L38.5672 67.8824L38.5468 69.0336C38.534 69.7751 38.925 70.466 39.567 70.8366L42.0151 72.2499C42.6568 72.6208 43.4507 72.614 44.0868 72.2321L45.0736 71.6391H48.2862L49.2731 72.2321C49.5962 72.4261 49.96 72.5233 50.3243 72.5233C50.6765 72.5233 51.0289 72.4324 51.3445 72.25L53.7926 70.8366C54.4348 70.466 54.8257 69.7751 54.8129 69.0335L54.7926 67.8824L56.3989 65.1002L57.4062 64.5419C58.0545 64.1823 58.4575 63.4983 58.4575 62.7571V59.9301C58.4575 59.1885 58.0545 58.5046 57.4061 58.1452L56.399 57.5869L54.7926 54.8048L54.8129 53.6537C54.8257 52.9123 54.4348 52.2213 53.7928 51.8507L51.3447 50.4373C50.7028 50.0662 49.909 50.0734 49.2732 50.4552L48.2862 51.0482H45.0736L44.0865 50.4551C43.4507 50.0732 42.6572 50.0667 42.0153 50.4371L39.5672 51.8507C38.925 52.2213 38.534 52.9123 38.5468 53.6538L38.5672 54.8048L36.9609 57.5869L35.954 58.1451C35.3054 58.5046 34.9025 59.1885 34.9025 59.9301V62.7571C34.9025 63.4985 35.3053 64.1824 35.9539 64.5421ZM37.2462 60.1087L38.1697 59.5968C38.4937 59.4176 38.7631 59.153 38.9486 58.8318L40.639 55.904C40.824 55.5834 40.9184 55.2182 40.912 54.848L40.8934 53.7915L43.0326 52.5563L43.9384 53.1006C44.2557 53.2913 44.6192 53.3921 44.9896 53.3921H48.3704C48.7407 53.3921 49.1042 53.2912 49.4214 53.1007L50.3276 52.5563L52.4667 53.7915L52.4481 54.8482C52.4417 55.2182 52.5361 55.5834 52.7212 55.9041L54.4117 58.8321C54.5971 59.1532 54.8664 59.4176 55.1904 59.5969L56.1139 60.1088V62.579L55.1895 63.0913C54.8657 63.2707 54.5967 63.5351 54.4115 63.8558L52.7209 66.7841C52.5359 67.1049 52.4417 67.4697 52.4481 67.8397L52.4667 68.8963L50.3275 70.1313L49.4217 69.5872C49.1043 69.3965 48.7409 69.2957 48.3704 69.2957H44.9896C44.6193 69.2957 44.2559 69.3966 43.9387 69.5871L43.0326 70.1313L40.8934 68.8963L40.912 67.8396C40.9184 67.4697 40.8242 67.1049 40.6389 66.7835L38.9484 63.8555C38.7632 63.5351 38.4943 63.2708 38.1704 63.0913L37.2461 62.579V60.1087H37.2462Z" fill="#FDFDFD"/>
<path d="M61.9895 87.8359C61.1635 87.0103 59.8723 86.931 58.9539 87.5931L52.5392 77.5728C51.8287 76.4628 50.5337 75.9118 49.242 76.1717C47.5395 76.5128 46.4395 78.12 46.7382 79.8304L47.7292 85.507C47.8309 86.0898 47.6093 86.6501 47.1362 87.0057C46.6634 87.3612 46.0632 87.4182 45.5317 87.1584C41.0047 84.9451 37.7243 80.8676 36.532 75.9718L35.2764 70.8164C34.8484 69.0589 33.2822 67.7839 31.4668 67.7156L31.4093 67.7134C29.4228 67.6373 27.824 69.3361 28.0156 71.3146C29.1795 83.3162 36.1592 93.9637 46.6923 99.8218C45.9092 100.745 45.9511 102.133 46.8217 103.004L51.4746 107.657C51.7036 107.885 52.0034 108 52.3034 108C52.6032 108 52.9032 107.885 53.132 107.657L58.3323 102.457C58.79 101.999 58.79 101.257 58.3323 100.799C57.8746 100.342 57.1328 100.342 56.675 100.799L52.3043 105.17L48.4792 101.336L60.3321 89.4935L64.1567 93.3179L59.9879 97.4863C59.5303 97.9442 59.5303 98.686 59.9879 99.1437C60.4457 99.601 61.1878 99.6014 61.6451 99.1437L66.6423 94.1467C66.8621 93.9268 66.9856 93.6289 66.9856 93.3179C66.9856 93.007 66.8621 92.7092 66.6424 92.4892L61.9895 87.8359ZM30.3484 71.0886C30.2926 70.5128 30.7639 70.0296 31.3218 70.0559C31.3375 70.0565 31.3956 70.0586 31.38 70.0581C32.1645 70.0875 32.8153 70.6151 32.9992 71.3711L34.2548 76.5265C35.6125 82.1014 39.3476 86.744 44.5023 89.2642C45.8215 89.909 47.3704 89.7618 48.5442 88.8795C49.7182 87.9973 50.2906 86.5507 50.0381 85.104L49.0471 79.4275C48.9689 78.9798 49.2568 78.5592 49.7023 78.4698C50.0412 78.4023 50.3792 78.5459 50.5651 78.8367L57.2385 89.2614L48.4067 98.0932C48.2648 97.9615 32.2243 90.4318 30.3484 71.0886Z" fill="#FDFDFD"/>
</svg>
