<svg width="136" height="136" viewBox="0 0 136 136" fill="none" xmlns="http://www.w3.org/2000/svg">
<path d="M68 136C105.555 136 136 105.555 136 68C136 30.4446 105.555 0 68 0C30.4446 0 0 30.4446 0 68C0 105.555 30.4446 136 68 136Z" fill="#171717"/>
<path d="M98.4048 48.7842H94.7025C94.9167 48.2998 95.0367 47.7648 95.0367 47.202C95.0367 45.2058 93.5387 43.5541 91.6081 43.3086V42.8281C91.6081 39.3295 90.3614 35.9309 88.0976 33.2583C87.6793 32.7644 86.94 32.703 86.446 33.1214C85.9523 33.5397 85.8909 34.2792 86.3093 34.773C88.2148 37.0228 89.2643 39.8836 89.2643 42.8281V43.2759H83.7209V42.8287C83.7209 39.0014 80.6071 35.8878 76.78 35.8878H59.2203C55.3939 35.8878 52.2809 39.0016 52.2809 42.8287V43.2759H46.7376V42.8281C46.7376 35.9442 52.3373 30.3438 59.2204 30.3438H76.78C78.9885 30.3438 81.1607 30.9313 83.0617 32.043C83.6203 32.3695 84.3381 32.1816 84.665 31.6228C84.9917 31.0641 84.8035 30.3464 84.245 30.0197C81.9851 28.6984 79.4037 28 76.7798 28H59.2204C51.0451 28 44.3939 34.6519 44.3939 42.8281V43.3083C42.4625 43.553 40.9637 45.2052 40.9637 47.2019C40.9637 47.7647 41.0837 48.2997 41.2979 48.7841H37.5951C32.4353 48.7841 28.2373 52.9819 28.2373 58.1419V66.7962C28.2373 70.255 30.1418 73.407 33.1486 75.0309V97.2609C33.1486 102.201 36.4918 106.485 41.2789 107.679C41.374 107.703 41.4695 107.714 41.5634 107.714C42.0886 107.714 42.5667 107.359 42.6995 106.826C42.8561 106.198 42.474 105.562 41.8461 105.405C38.105 104.472 35.4921 101.123 35.4921 97.2609V75.9147C36.1765 76.072 36.8789 76.1541 37.595 76.1541H39.9948V80.767C39.9948 83.5155 42.2309 85.7514 44.9792 85.7514H51.6754C54.4239 85.7514 56.6598 83.5153 56.6598 80.767V76.1541H79.3395V80.767C79.3395 83.5155 81.5756 85.7514 84.3239 85.7514H91.0201C93.7685 85.7514 96.0045 83.5153 96.0045 80.767V76.1541H98.404C99.1203 76.1541 99.8228 76.0719 100.507 75.9145V97.2609C100.507 101.89 96.741 105.656 92.112 105.656H46.2314C45.584 105.656 45.0595 106.181 45.0595 106.828C45.0595 107.475 45.584 108 46.2314 108H92.1128C98.0342 108 102.852 103.182 102.852 97.2609V75.0308C105.858 73.4066 107.763 70.2548 107.763 66.7964V58.142C107.762 52.982 103.565 48.7842 98.4048 48.7842ZM92.6928 47.2019C92.6928 48.0744 91.9829 48.7841 91.1104 48.7841H82.0254C81.1529 48.7841 80.4431 48.0744 80.4431 47.2019C80.4431 46.3294 81.1529 45.6197 82.0254 45.6197H91.1104C91.9829 45.6197 92.6928 46.3294 92.6928 47.2019ZM59.2203 38.2314H76.78C79.315 38.2314 81.3771 40.2937 81.3771 42.8286V43.3303C79.52 43.6405 78.0995 45.258 78.0995 47.2019C78.0995 47.7647 78.2195 48.2997 78.4337 48.7841H57.5667C57.7809 48.2997 57.9009 47.7647 57.9009 47.2019C57.9009 45.2584 56.4812 43.6412 54.6246 43.3306V42.8287C54.6245 40.2937 56.6862 38.2314 59.2203 38.2314ZM43.3075 47.2019C43.3075 46.3294 44.0173 45.6197 44.8898 45.6197H53.9748C54.8473 45.6197 55.5571 46.3294 55.5571 47.2019C55.5571 48.0744 54.8473 48.7841 53.9748 48.7841H44.8898C44.0173 48.7842 43.3075 48.0744 43.3075 47.2019ZM54.3165 80.767C54.3165 82.2231 53.132 83.4077 51.6759 83.4077H44.9796C43.5236 83.4077 42.339 82.223 42.339 80.767V73.1264C42.339 71.6703 43.5236 70.4858 44.9796 70.4858H51.6759C53.132 70.4858 54.3165 71.6705 54.3165 73.1264V80.767ZM93.6614 80.767C93.6614 82.2231 92.4768 83.4077 91.0207 83.4077H84.3245C82.8684 83.4077 81.6839 82.223 81.6839 80.767V73.1264C81.6839 71.6703 82.8684 70.4858 84.3245 70.4858H91.0207C92.4768 70.4858 93.6614 71.6705 93.6614 73.1264V80.767ZM105.419 66.7962C105.419 69.5856 103.767 72.1097 101.21 73.2272C100.326 73.6142 99.3821 73.8103 98.4046 73.8103H96.0051V73.1264C96.0051 70.378 93.769 68.142 91.0207 68.142H84.3245C81.576 68.142 79.3401 70.3781 79.3401 73.1264V73.8103H56.6604V73.1264C56.6604 70.378 54.4243 68.142 51.6761 68.142H44.9798C42.2314 68.142 39.9954 70.3781 39.9954 73.1264V73.8103H37.5951C36.6176 73.8103 35.6739 73.6142 34.7893 73.2269C32.2331 72.1097 30.5811 69.5855 30.5811 66.7962V58.1419C30.5811 54.2744 33.7276 51.1278 37.5951 51.1278H98.4048C102.272 51.1278 105.419 54.2742 105.419 58.1419V66.7962Z" fill="#FDFDFD"/>
<path d="M88.7368 72.0857H86.6083C84.7752 72.0857 83.2838 73.5771 83.2838 75.4102V78.483C83.2838 80.3162 84.7752 81.8076 86.6083 81.8076H88.7368C90.5699 81.8076 92.0613 80.3162 92.0613 78.483V75.4102C92.0613 73.5771 90.5699 72.0857 88.7368 72.0857ZM89.7176 78.483C89.7176 79.0238 89.2776 79.4638 88.7368 79.4638H86.6083C86.0676 79.4638 85.6276 79.0238 85.6276 78.483V75.4102C85.6276 74.8694 86.0676 74.4294 86.6083 74.4294H88.7368C89.2776 74.4294 89.7176 74.8694 89.7176 75.4102V78.483Z" fill="#FDFDFD"/>
<path d="M49.3919 72.0857H47.2634C45.4303 72.0857 43.9389 73.5771 43.9389 75.4102V78.483C43.9389 80.3162 45.4303 81.8076 47.2634 81.8076H49.3919C51.225 81.8076 52.7164 80.3162 52.7164 78.483V75.4102C52.7166 73.5771 51.2252 72.0857 49.3919 72.0857ZM50.3728 78.483C50.3728 79.0238 49.9328 79.4638 49.392 79.4638H47.2636C46.7228 79.4638 46.2828 79.0238 46.2828 78.483V75.4102C46.2828 74.8694 46.7228 74.4294 47.2636 74.4294H49.392C49.9328 74.4294 50.3728 74.8694 50.3728 75.4102V78.483Z" fill="#FDFDFD"/>
<path d="M49.7264 96.7496C49.3321 96.7496 48.9642 96.9479 48.7474 97.2771C48.5306 97.6065 48.494 98.0227 48.6499 98.3849C49.957 101.42 52.9381 103.382 56.2443 103.382C59.2835 103.382 62.0495 101.722 63.4924 99.0932H72.5074C73.9503 101.722 76.7163 103.382 79.7556 103.382C83.0618 103.382 86.0429 101.42 87.3499 98.3849C87.5059 98.0227 87.4693 97.6065 87.2524 97.2771C87.0357 96.9479 86.6679 96.7496 86.2735 96.7496H81.0056V93.4774H86.2735C86.6678 93.4774 87.0357 93.2791 87.2524 92.9499C87.4693 92.6205 87.5059 92.2043 87.3499 91.8421C86.0429 88.8066 83.0618 86.8452 79.7556 86.8452C76.7163 86.8452 73.9504 88.5049 72.5074 91.1338H63.4924C62.0496 88.5049 59.2835 86.8452 56.2443 86.8452C52.9381 86.8452 49.957 88.8066 48.6499 91.8421C48.494 92.2043 48.5306 92.6205 48.7474 92.9499C48.9642 93.2791 49.332 93.4774 49.7264 93.4774H54.9943V96.7496H49.7264ZM56.1662 91.1337H51.8532C52.9567 89.9162 54.5401 89.1888 56.2445 89.1888C58.6117 89.1888 60.7478 90.5944 61.6864 92.7698C61.8718 93.1993 62.2948 93.4774 62.7624 93.4774H73.2378C73.7054 93.4774 74.1284 93.1993 74.3138 92.7698C75.2524 90.5944 77.3885 89.1888 79.7557 89.1888C81.4599 89.1888 83.0435 89.916 84.147 91.1337H79.834C79.1867 91.1337 78.6621 91.6583 78.6621 92.3055V97.9215C78.6621 98.5687 79.1867 99.0933 79.834 99.0933H84.147C83.0435 100.311 81.4601 101.038 79.7557 101.038C77.3885 101.038 75.2524 99.6326 74.3138 97.4573C74.1284 97.0277 73.7054 96.7496 73.2378 96.7496H62.7624C62.2948 96.7496 61.8718 97.0277 61.6864 97.4573C60.7478 99.6326 58.6117 101.038 56.2445 101.038C54.5403 101.038 52.9567 100.311 51.8532 99.0933H56.1662C56.8135 99.0933 57.3381 98.5687 57.3381 97.9215V92.3055C57.3381 91.6583 56.8134 91.1337 56.1662 91.1337Z" fill="#FDFDFD"/>
</svg>
