<svg width="24" height="28" viewBox="0 0 24 28" fill="none" xmlns="http://www.w3.org/2000/svg">
<path d="M11.9941 0C5.80711 0 0.77063 5.03648 0.77063 11.2235C0.77063 11.9279 0.8352 12.6382 0.97021 13.3308C0.97608 13.3719 0.999561 13.4952 1.04652 13.7065C1.21675 14.4637 1.46916 15.2092 1.79788 15.9195C3.00711 18.7665 5.66623 23.1396 11.501 27.8239C11.6478 27.9413 11.8239 28 12 28C12.1761 28 12.3522 27.9413 12.4989 27.8239C18.3279 23.1396 20.9928 18.7665 22.2021 15.9195C22.5308 15.2092 22.7832 14.4696 22.9534 13.7065C23.0004 13.4952 23.0239 13.3719 23.0297 13.3308C23.1589 12.6382 23.2293 11.9279 23.2293 11.2235C23.2176 5.03648 18.1811 0 11.9941 0ZM21.4566 13.0549C21.4566 13.0667 21.4507 13.0784 21.4507 13.0901C21.4448 13.1195 21.4272 13.2075 21.3979 13.3426C21.3979 13.3484 21.3979 13.3484 21.3979 13.3543C21.2511 14.0117 21.0339 14.6516 20.7463 15.2679C20.7404 15.2738 20.7404 15.2855 20.7346 15.2914C19.6369 17.8918 17.2302 21.86 11.9941 26.1862C6.75805 21.86 4.35134 17.8918 3.25365 15.2914C3.24778 15.2855 3.24778 15.2738 3.24191 15.2679C2.96015 14.6574 2.74296 14.0117 2.59034 13.3543C2.59034 13.3484 2.59034 13.3484 2.59034 13.3426C2.55512 13.2075 2.54338 13.1195 2.53751 13.0901C2.53751 13.0784 2.53164 13.0667 2.53164 13.0491C2.41424 12.4444 2.35554 11.834 2.35554 11.2176C2.35554 5.90524 6.68174 1.57904 11.9941 1.57904C17.3065 1.57904 21.6327 5.90524 21.6327 11.2176C21.6327 11.8398 21.574 12.4562 21.4566 13.0549Z" fill="#E83C26"/>
<path d="M11.9941 4.22054C8.06708 4.22054 4.86792 7.4197 4.86792 11.3467C4.86792 15.2738 8.06708 18.4729 11.9941 18.4729C15.9212 18.4729 19.1203 15.2738 19.1203 11.3467C19.1203 7.4197 15.9212 4.22054 11.9941 4.22054ZM11.9941 16.888C8.93584 16.888 6.45283 14.3991 6.45283 11.3467C6.45283 8.29433 8.94171 5.80545 11.9941 5.80545C15.0465 5.80545 17.5354 8.29433 17.5354 11.3467C17.5354 14.3991 15.0524 16.888 11.9941 16.888Z" fill="#E83C26"/>
</svg>
