<svg width="30" height="21" viewBox="0 0 30 21" fill="none" xmlns="http://www.w3.org/2000/svg">
<path d="M29.0512 4.92474C28.9102 4.77188 28.7172 4.67618 28.5095 4.65592L6.46713 4.35353L5.85767 2.50552C5.42831 1.27016 4.26253 0.43616 2.94575 0.422333H0.677186C0.303175 0.422333 0 0.723184 0 1.09433C0 1.46547 0.303175 1.76632 0.677186 1.76632H2.94575C3.68204 1.78247 4.33038 2.25162 4.57102 2.94233L8.87114 15.811L8.53258 16.5838C8.15494 17.5501 8.26835 18.6378 8.83731 19.507C9.40082 20.3606 10.3488 20.8875 11.3768 20.9181H24.548C24.922 20.9181 25.2252 20.6173 25.2252 20.2462C25.2252 19.875 24.922 19.5742 24.548 19.5742H11.3767C10.7962 19.5598 10.2619 19.2567 9.95461 18.7678C9.65079 18.2848 9.58838 17.6898 9.78533 17.1549L10.0562 16.5501L24.311 15.0717C25.8767 14.9006 27.1647 13.7705 27.5276 12.2494L29.1529 5.49583C29.2261 5.30135 29.1872 5.08263 29.0512 4.92474ZM26.2071 11.947C25.9872 12.9262 25.1495 13.6485 24.1417 13.7278L10.0562 15.1726L6.90731 5.69752L27.663 5.99991L26.2071 11.947Z" fill="#171717"/>
</svg>
