<svg width="136" height="136" viewBox="0 0 136 136" fill="none" xmlns="http://www.w3.org/2000/svg">
<path d="M68 136C105.555 136 136 105.555 136 68C136 30.4446 105.555 0 68 0C30.4446 0 0 30.4446 0 68C0 105.555 30.4446 136 68 136Z" fill="#171717"/>
<path d="M63.9587 83.4243C63.6687 83.4242 63.3906 83.3089 63.1856 83.1037L47.0306 66.9481C46.9289 66.8466 46.8483 66.726 46.7933 66.5933C46.7383 66.4606 46.7099 66.3183 46.7099 66.1746C46.7099 66.031 46.7383 65.8887 46.7933 65.756C46.8483 65.6233 46.9289 65.5027 47.0306 65.4012L51.4493 60.9818C51.6583 60.784 51.9351 60.6738 52.2228 60.6738C52.5105 60.6738 52.7873 60.784 52.9962 60.9818L63.9587 71.9443L83.0075 52.8962C83.2125 52.691 83.4906 52.5757 83.7806 52.5756C84.0706 52.5757 84.3487 52.691 84.5537 52.8962L88.9725 57.3156C89.0742 57.4171 89.1548 57.5377 89.2098 57.6704C89.2648 57.8031 89.2931 57.9453 89.2931 58.089C89.2931 58.2327 89.2648 58.3749 89.2098 58.5076C89.1548 58.6404 89.0742 58.7609 88.9725 58.8625L64.7318 83.1037C64.5268 83.3089 64.2487 83.4242 63.9587 83.4243ZM49.3506 66.175L63.9587 80.7837L86.6531 58.0893L83.7781 55.2143L64.7318 74.2643C64.6303 74.366 64.5097 74.4466 64.377 74.5016C64.2443 74.5567 64.1021 74.585 63.9584 74.585C63.8147 74.585 63.6725 74.5567 63.5398 74.5016C63.407 74.4466 63.2865 74.366 63.185 74.2643L52.2225 63.3018L49.3506 66.175ZM97.7925 68C97.7835 60.1012 94.6418 52.5286 89.0566 46.9433C83.4713 41.3581 75.8987 38.2164 68 38.2074C63.3116 38.1935 58.6874 39.2978 54.5112 41.4287C54.3773 41.4901 54.2572 41.5779 54.1581 41.6868C54.059 41.7957 53.9829 41.9235 53.9344 42.0626C53.8858 42.2016 53.8659 42.349 53.8757 42.496C53.8856 42.6429 53.925 42.7863 53.9916 42.9177C54.0582 43.049 54.1507 43.1656 54.2634 43.2603C54.3762 43.355 54.5069 43.426 54.6478 43.469C54.7886 43.512 54.9367 43.5261 55.0831 43.5105C55.2296 43.4949 55.3713 43.4498 55.5 43.3781C59.3702 41.4041 63.6554 40.3815 68 40.3949C74.0379 40.3984 79.908 42.3825 84.7099 46.0429C89.5118 49.7033 92.9803 54.8379 94.5834 60.6591C96.1865 66.4804 95.8358 72.6668 93.5848 78.2695C91.3339 83.8722 87.3072 88.5818 82.1223 91.6759C76.9374 94.77 70.8806 96.0778 64.881 95.3986C58.8814 94.7195 53.2702 92.0909 48.9081 87.9161C44.5461 83.7413 41.674 78.2507 40.7324 72.2867C39.7908 66.3226 40.8318 60.2143 43.6956 54.8987C43.7639 54.7723 43.8066 54.6337 43.8213 54.4908C43.836 54.3479 43.8225 54.2035 43.7814 54.0658C43.7403 53.9281 43.6725 53.7999 43.5818 53.6885C43.4912 53.577 43.3795 53.4845 43.2531 53.4162C43.1267 53.3479 42.9881 53.3052 42.8452 53.2905C42.7023 53.2757 42.5579 53.2893 42.4202 53.3304C42.2825 53.3715 42.1543 53.4393 42.0428 53.5299C41.9314 53.6206 41.8389 53.7323 41.7706 53.8587C39.6194 57.8492 38.4072 62.2779 38.2262 66.8076C38.0452 71.3374 38.9003 75.8487 40.7263 79.9981C42.5522 84.1474 45.301 87.8254 48.7632 90.7519C52.2254 93.6785 56.3097 95.7764 60.7052 96.8859C65.1007 97.9954 69.6914 98.0873 74.1278 97.1546C78.5642 96.2218 82.7292 94.2891 86.3057 91.5034C89.8823 88.7178 92.776 85.1527 94.7666 81.0798C96.7571 77.0068 97.792 72.5333 97.7925 68ZM47.8431 49.1387C48.4681 48.4712 49.1343 47.8262 49.825 47.2218C49.933 47.1271 50.0214 47.0121 50.085 46.8833C50.1486 46.7545 50.1862 46.6144 50.1956 46.471C50.2051 46.3277 50.1862 46.1839 50.1401 46.0478C50.094 45.9118 50.0215 45.7861 49.9268 45.6781C49.8322 45.57 49.7171 45.4817 49.5883 45.4181C49.4595 45.3545 49.3194 45.3169 49.1761 45.3074C49.0327 45.298 48.8889 45.3168 48.7528 45.3629C48.6168 45.4091 48.4911 45.4815 48.3831 45.5762C47.6393 46.2281 46.92 46.9237 46.2462 47.6437C46.148 47.7485 46.0714 47.8717 46.0208 48.0062C45.9702 48.1406 45.9466 48.2837 45.9513 48.4273C45.956 48.5709 45.9889 48.7121 46.0482 48.843C46.1075 48.9739 46.192 49.0917 46.2968 49.1899C46.4017 49.2882 46.5249 49.3647 46.6593 49.4153C46.7938 49.466 46.9369 49.4896 47.0804 49.4849C47.224 49.4802 47.3653 49.4472 47.4961 49.3879C47.627 49.3287 47.7449 49.2442 47.8431 49.1393V49.1387ZM71.5081 106.768L73.7456 104.976C74.175 104.632 74.6808 104.397 75.2203 104.29C75.7597 104.183 76.3169 104.208 76.845 104.361L79.5893 105.161C80.8161 105.526 82.1309 105.457 83.3131 104.967C84.4953 104.477 85.4731 103.595 86.0825 102.47L87.4575 99.965C87.7218 99.4827 88.0983 99.0712 88.5552 98.7651C89.0121 98.4589 89.5359 98.2673 90.0825 98.2062L92.9293 97.8937C94.1999 97.7599 95.386 97.194 96.2894 96.2906C97.1927 95.3872 97.7586 94.2011 97.8925 92.9306C97.9242 92.6423 97.8401 92.3531 97.6587 92.1268C97.4772 91.9004 97.2133 91.7555 96.925 91.7237C96.6367 91.692 96.3475 91.7761 96.1211 91.9575C95.8948 92.139 95.7498 92.4029 95.7181 92.6912C95.6364 93.4665 95.291 94.1903 94.7397 94.7416C94.1884 95.2929 93.4647 95.6382 92.6893 95.72L89.8418 96.0325C88.9453 96.1318 88.0859 96.4455 87.3362 96.9471C86.5866 97.4487 85.9688 98.1235 85.535 98.9143L84.16 101.419C83.7879 102.106 83.1914 102.643 82.4703 102.942C81.7492 103.241 80.9472 103.284 80.1987 103.062L77.4543 102.262C76.5891 102.009 75.6758 101.969 74.7917 102.144C73.9076 102.319 73.0787 102.705 72.375 103.268L70.1375 105.061C69.5316 105.551 68.7757 105.819 67.9962 105.819C67.2167 105.819 66.4608 105.551 65.855 105.061L63.6175 103.268C62.9135 102.705 62.0845 102.32 61.2003 102.145C60.3162 101.969 59.4029 102.009 58.5375 102.261L55.7937 103.062C55.0451 103.283 54.2431 103.241 53.5219 102.942C52.8008 102.643 52.2041 102.106 51.8318 101.419L50.4568 98.9137C50.0232 98.1227 49.4053 97.4478 48.6554 96.9463C47.9056 96.4447 47.046 96.1313 46.1493 96.0325L43.3025 95.72C42.5271 95.6382 41.8033 95.2929 41.2521 94.7416C40.7008 94.1903 40.3554 93.4665 40.2737 92.6912L39.9612 89.8437C39.8619 88.9472 39.5482 88.0878 39.0466 87.3381C38.5449 86.5885 37.8702 85.9706 37.0793 85.5368L34.5743 84.1618C33.8944 83.7836 33.3625 83.1863 33.0653 82.4673C32.7681 81.7482 32.723 80.9498 32.9375 80.2018L33.7375 77.4575C33.9896 76.5922 34.0298 75.679 33.8546 74.7949C33.6795 73.9108 33.2942 73.0819 32.7312 72.3781L30.9375 70.1412C30.4472 69.5352 30.1797 68.7794 30.1797 68C30.1797 67.2205 30.4472 66.4647 30.9375 65.8587L32.73 63.6212C33.2929 62.9173 33.6782 62.0883 33.8535 61.2041C34.0287 60.32 33.9887 59.4066 33.7368 58.5412L32.9375 55.7981C32.7152 55.0495 32.7572 54.2472 33.0562 53.5259C33.3553 52.8046 33.8933 52.208 34.58 51.8362L37.0856 50.4612C37.8766 50.0275 38.5515 49.4096 39.053 48.6598C39.5545 47.91 39.868 47.0504 39.9668 46.1537L40.2793 43.3068C40.3618 42.5313 40.708 41.8075 41.2601 41.2567C41.8122 40.7058 42.5367 40.3612 43.3125 40.2806L46.16 39.9681C47.0565 39.8688 47.9159 39.555 48.6656 39.0534C49.4152 38.5518 50.0331 37.877 50.4668 37.0862L51.8418 34.5812C52.2192 33.9011 52.8154 33.3686 53.5336 33.0702C54.2519 32.7718 55.0499 32.725 55.7981 32.9374L58.5425 33.7374C59.4077 33.9896 60.321 34.0298 61.205 33.8547C62.0891 33.6796 62.9181 33.2942 63.6218 32.7312L65.8587 30.9374C66.4646 30.4471 67.2205 30.1795 68 30.1795C68.7794 30.1795 69.5353 30.4471 70.1412 30.9374L72.3787 32.7299C73.0829 33.2925 73.9119 33.6776 74.7959 33.8528C75.68 34.028 76.5932 33.9882 77.4587 33.7368L80.2018 32.9374C80.9505 32.7161 81.7524 32.7584 82.4735 33.0574C83.1947 33.3563 83.7913 33.8938 84.1637 34.5799L85.5387 37.0856C85.9724 37.8766 86.5903 38.5514 87.3401 39.053C88.09 39.5545 88.9496 39.868 89.8462 39.9668L92.6931 40.2793C93.4684 40.361 94.1922 40.7064 94.7435 41.2577C95.2947 41.809 95.6401 42.5327 95.7218 43.3081L96.0343 46.1556C96.1336 47.0521 96.4473 47.9115 96.949 48.6612C97.4506 49.4108 98.1254 50.0287 98.9162 50.4624L101.421 51.8374C102.102 52.2149 102.636 52.812 102.934 53.5314C103.232 54.2507 103.278 55.05 103.064 55.7987L102.264 58.5431C102.012 59.4083 101.971 60.3216 102.147 61.2057C102.322 62.0897 102.707 62.9187 103.27 63.6225L105.062 65.86C105.553 66.4659 105.82 67.2218 105.82 68.0012C105.82 68.7806 105.553 69.5365 105.062 70.1425L103.27 72.38C102.707 73.0839 102.322 73.9129 102.146 74.7971C101.971 75.6812 102.011 76.5945 102.263 77.46L103.064 80.2037C103.286 80.9523 103.244 81.7545 102.945 82.4759C102.646 83.1972 102.108 83.7938 101.421 84.1656L98.9156 85.5406C98.7896 85.6096 98.6784 85.7028 98.5885 85.8148C98.4986 85.9267 98.4314 86.0554 98.3912 86.1933C98.3509 86.3311 98.3382 86.4756 98.3537 86.6184C98.3693 86.7612 98.4128 86.8996 98.4818 87.0256C98.5509 87.1516 98.644 87.2627 98.756 87.3527C98.868 87.4427 98.9966 87.5097 99.1345 87.55C99.2724 87.5903 99.4169 87.603 99.5597 87.5875C99.7025 87.5719 99.8409 87.5284 99.9668 87.4593L102.472 86.0843C103.598 85.4749 104.479 84.497 104.969 83.3146C105.459 82.1323 105.528 80.8175 105.164 79.5906L104.363 76.8475C104.21 76.3192 104.185 75.7617 104.292 75.2221C104.399 74.6825 104.635 74.1765 104.978 73.7468L106.771 71.5093C107.574 70.5164 108.012 69.278 108.012 68.0009C108.012 66.7238 107.574 65.4854 106.771 64.4925L104.978 62.255C104.634 61.8256 104.399 61.3198 104.292 60.7803C104.185 60.2409 104.21 59.6836 104.364 59.1556L105.164 56.4112C105.515 55.184 105.44 53.8741 104.951 52.6949C104.463 51.5157 103.589 50.5369 102.472 49.9181L99.9675 48.5431C99.4852 48.2787 99.0737 47.9022 98.7676 47.4453C98.4614 46.9884 98.2698 46.4646 98.2087 45.9181L97.8962 43.0712C97.7625 41.8007 97.1965 40.6146 96.2931 39.7112C95.3897 38.8078 94.2036 38.2419 92.9331 38.1081L90.0862 37.7956C89.5397 37.7347 89.0158 37.5432 88.5589 37.2372C88.102 36.9312 87.7255 36.5197 87.4612 36.0374L86.0862 33.5318C85.477 32.4062 84.4991 31.5243 83.3167 31.0343C82.1343 30.5443 80.8193 30.4759 79.5925 30.8406L76.8462 31.6393C76.3179 31.7929 75.7605 31.8172 75.2209 31.7101C74.6812 31.6031 74.1753 31.3679 73.7456 31.0243L71.5081 29.2318C70.515 28.4291 69.2766 27.9912 67.9996 27.9912C66.7227 27.9912 65.4843 28.4291 64.4912 29.2318L62.2537 31.0243C61.8239 31.3671 61.3181 31.6018 60.7788 31.7087C60.2395 31.8156 59.6824 31.7916 59.1543 31.6387L56.41 30.8387C55.1829 30.4872 53.8729 30.5619 52.6938 31.0507C51.5147 31.5394 50.536 32.4134 49.9175 33.5299L48.5425 36.0349C48.2781 36.5172 47.9016 36.9287 47.4447 37.2348C46.9878 37.541 46.464 37.7326 45.9175 37.7937L43.0706 38.1062C41.8 38.24 40.6139 38.8059 39.7106 39.7093C38.8072 40.6127 38.2413 41.7988 38.1075 43.0693L37.795 45.9162C37.7341 46.4627 37.5426 46.9866 37.2366 47.4435C36.9306 47.9004 36.5191 48.2769 36.0368 48.5412L33.5312 49.9162C32.4058 50.5257 31.5242 51.5036 31.0342 52.6859C30.5442 53.8682 30.4756 55.1831 30.84 56.41L31.6406 59.1531C31.7941 59.6813 31.8184 60.2388 31.7114 60.7784C31.6044 61.3181 31.3691 61.824 31.0256 62.2537L29.2331 64.4912C28.43 65.4842 27.9919 66.7226 27.9919 67.9996C27.9919 69.2767 28.43 70.5151 29.2331 71.5081L31.0256 73.7456C31.3692 74.175 31.6044 74.6808 31.7114 75.2202C31.8183 75.7597 31.7938 76.317 31.64 76.845L30.84 79.5893C30.4885 80.8163 30.5632 82.1262 31.0517 83.3054C31.5402 84.4846 32.4138 85.4635 33.53 86.0825L36.035 87.4575C36.5172 87.7218 36.9288 88.0983 37.2349 88.5552C37.541 89.0121 37.7326 89.5359 37.7937 90.0825L38.1062 92.9293C38.24 94.1999 38.8059 95.386 39.7093 96.2894C40.6127 97.1927 41.7988 97.7586 43.0693 97.8925L45.9162 98.205C46.4627 98.2658 46.9866 98.4573 47.4435 98.7633C47.9004 99.0694 48.2769 99.4809 48.5412 99.9631L49.9162 102.469C50.5255 103.594 51.5034 104.476 52.6858 104.966C53.8681 105.456 55.1831 105.525 56.41 105.16L59.1531 104.359C59.6814 104.206 60.2387 104.182 60.7783 104.289C61.3178 104.396 61.8238 104.631 62.2537 104.974L64.4912 106.767C65.4842 107.57 66.7226 108.008 67.9996 108.008C69.2767 108.008 70.5151 107.57 71.5081 106.767V106.768Z" fill="#FDFDFD"/>
</svg>
