<svg width="28" height="28" viewBox="0 0 28 28" fill="none" xmlns="http://www.w3.org/2000/svg">
<g clip-path="url(#clip0)">
<path d="M22.1288 17.345C21.5556 16.7481 20.8642 16.429 20.1314 16.429C19.4045 16.429 18.7072 16.7422 18.1103 17.3391L16.2429 19.2006C16.0892 19.1179 15.9356 19.0411 15.7878 18.9642C15.5751 18.8579 15.3742 18.7574 15.2028 18.651C13.4535 17.54 11.8639 16.0922 10.3392 14.2188C9.60049 13.2851 9.10408 12.4991 8.7436 11.7013C9.22818 11.2581 9.67731 10.7972 10.1146 10.354C10.2801 10.1885 10.4456 10.0171 10.611 9.85164C11.852 8.61062 11.852 7.00322 10.611 5.7622L8.99771 4.14888C8.81451 3.96569 8.62541 3.77658 8.44812 3.58747C8.09354 3.22108 7.72124 2.84286 7.33712 2.48829C6.76389 1.92097 6.07837 1.61958 5.3574 1.61958C4.63643 1.61958 3.9391 1.92097 3.34814 2.48829C3.34223 2.4942 3.34223 2.4942 3.33632 2.50011L1.32706 4.5271C0.570634 5.28353 0.139233 6.20542 0.04468 7.27506C-0.0971503 9.00066 0.411075 10.6081 0.801108 11.66C1.75846 14.2425 3.18858 16.6358 5.32195 19.2006C7.91035 22.2913 11.0247 24.732 14.5823 26.4517C15.9415 27.0958 17.7557 27.8582 19.7827 27.9882C19.9068 27.9941 20.0368 28 20.155 28C21.5201 28 22.6666 27.5095 23.5649 26.5344C23.5708 26.5226 23.5826 26.5167 23.5885 26.5049C23.8958 26.1326 24.2504 25.7957 24.6227 25.4352C24.8768 25.1929 25.1368 24.9388 25.3909 24.6729C25.976 24.0642 26.2833 23.3551 26.2833 22.6282C26.2833 21.8954 25.9701 21.1921 25.3732 20.6012L22.1288 17.345ZM24.2445 23.5678C24.2385 23.5678 24.2385 23.5737 24.2445 23.5678C24.014 23.816 23.7776 24.0406 23.5235 24.2888C23.1394 24.6552 22.7493 25.0393 22.3829 25.4707C21.7861 26.1089 21.0828 26.4103 20.1609 26.4103C20.0723 26.4103 19.9777 26.4103 19.8891 26.4044C18.1339 26.2921 16.5029 25.6066 15.2796 25.0216C11.9348 23.4023 8.99771 21.1035 6.55705 18.1901C4.54188 15.7612 3.19449 13.5156 2.30214 11.1045C1.75255 9.63298 1.55163 8.48652 1.64027 7.40507C1.69937 6.71365 1.9653 6.14042 2.45579 5.64992L4.47096 3.63475C4.76053 3.36291 5.06783 3.21517 5.36922 3.21517C5.74153 3.21517 6.04292 3.43973 6.23202 3.62884C6.23793 3.63475 6.24384 3.64066 6.24975 3.64657C6.61024 3.98342 6.95299 4.33208 7.31348 4.70439C7.49668 4.89349 7.68578 5.0826 7.87489 5.27762L9.48821 6.89093C10.1146 7.51735 10.1146 8.09649 9.48821 8.72291C9.31683 8.89429 9.15136 9.06566 8.97998 9.23113C8.48358 9.73936 8.01081 10.2121 7.49668 10.6731C7.48486 10.6849 7.47304 10.6908 7.46713 10.7026C6.9589 11.2108 7.05346 11.7073 7.15983 12.0441C7.16574 12.0618 7.17165 12.0796 7.17756 12.0973C7.59714 13.1137 8.1881 14.0711 9.08636 15.2116L9.09227 15.2175C10.7233 17.2268 12.443 18.7929 14.34 19.9925C14.5823 20.1461 14.8305 20.2702 15.0669 20.3884C15.2796 20.4948 15.4805 20.5953 15.6519 20.7016C15.6755 20.7135 15.6992 20.7312 15.7228 20.743C15.9238 20.8435 16.1129 20.8908 16.3079 20.8908C16.7984 20.8908 17.1057 20.5835 17.2061 20.483L19.2272 18.4619C19.4281 18.261 19.7473 18.0187 20.1196 18.0187C20.486 18.0187 20.7873 18.2492 20.9705 18.4501C20.9765 18.456 20.9765 18.456 20.9824 18.4619L24.2385 21.7181C24.8472 22.3209 24.8472 22.9414 24.2445 23.5678Z" fill="#E83C26"/>
<path d="M15.1319 6.66047C16.6802 6.92049 18.0867 7.65328 19.2095 8.7761C20.3323 9.89892 21.0592 11.3054 21.3251 12.8537C21.3901 13.2438 21.727 13.5156 22.1111 13.5156C22.1584 13.5156 22.1997 13.5097 22.247 13.5038C22.6843 13.4329 22.9739 13.0192 22.903 12.5819C22.5839 10.7085 21.6974 9.00067 20.3441 7.64737C18.9908 6.29407 17.283 5.40763 15.4096 5.08852C14.9723 5.0176 14.5645 5.30717 14.4877 5.73857C14.4109 6.16997 14.6945 6.58955 15.1319 6.66047Z" fill="#E83C26"/>
<path d="M27.9675 12.3514C27.4416 9.26659 25.9878 6.45954 23.754 4.22571C21.5201 1.99189 18.7131 0.538126 15.6283 0.0121724C15.1969 -0.0646524 14.7891 0.230827 14.7123 0.662228C14.6414 1.09954 14.9309 1.5073 15.3683 1.58412C18.1221 2.05098 20.6337 3.357 22.6311 5.34853C24.6286 7.34598 25.9287 9.85755 26.3956 12.6114C26.4606 13.0015 26.7974 13.2733 27.1815 13.2733C27.2288 13.2733 27.2702 13.2674 27.3174 13.2615C27.7488 13.1965 28.0443 12.7828 27.9675 12.3514Z" fill="#E83C26"/>
</g>
<defs>
<clipPath id="clip0">
<rect width="28" height="28" fill="white"/>
</clipPath>
</defs>
</svg>
