<svg width="28" height="28" viewBox="0 0 28 28" fill="none" xmlns="http://www.w3.org/2000/svg">
<path d="M14 28C6.28009 28 0 21.7199 0 14C0 6.28009 6.28009 0 14 0C21.7199 0 28 6.28009 28 14C28 21.7199 21.7199 28 14 28ZM14 1.75C7.24503 1.75 1.75 7.24503 1.75 14C1.75 20.755 7.24503 26.25 14 26.25C20.755 26.25 26.25 20.755 26.25 14C26.25 7.24503 20.755 1.75 14 1.75Z" fill="#E83C26"/>
<path d="M20.125 21.5834C19.9009 21.5834 19.677 21.4982 19.5066 21.3266L13.3816 15.2016C13.2171 15.0371 13.125 14.8143 13.125 14.5834V6.4166C13.125 5.93359 13.517 5.5416 14 5.5416C14.483 5.5416 14.875 5.93359 14.875 6.4166V14.2205L20.7434 20.0889C21.0852 20.4307 21.0852 20.9848 20.7434 21.3266C20.573 21.4982 20.3491 21.5834 20.125 21.5834Z" fill="#E83C26"/>
</svg>
